<svg xmlns="http://www.w3.org/2000/svg" width="64" height="64" viewBox="0 0 52 64" fill="none"><path d="M50.27 2.92c.01.07.01.13.01.19v55.77c0 1.72-1.41 3.12-3.15 3.12h-.14L4.95 60.13c-1.64-.07-2.95-1.38-3.01-2.99L0 5.95c-.06-1.69 1.25-3.12 2.95-3.23L37.43.59l-.3 7.03c-.01.08.01.16.05.23.04.07.1.12.17.16.21.16.5.12.66-.09l2.76-2.07 2.33 1.82c.09.07.2.1.31.1.26-.01.46-.23.45-.48l-.26-7.16 3.47-.21c1.74-.11 3.23 1.2 3.34 2.92z" fill="#FF4785"/><path d="M29.4 23.37c0 1.21 8.25.64 9.36-.21 0-8.26-4.48-12.6-12.68-12.6-8.2 0-12.79 4.41-12.79 11.02 0 11.51 15.7 11.73 15.7 17.01 0 1.76-.87 2.81-2.79 2.81-2.5 0-3.49-1.26-3.37-5.56 0-.93-9.54-1.22-9.83 0-.74 10.41 5.82 13.42 13.32 13.42 7.27 0 12.97-3.83 12.97-10.78 0-12.34-15.93-12.01-15.93-18.12 0-2.48 1.86-2.81 2.97-2.81 1.16 0 3.25.2 3.08 4.83z" fill="#fff"/></svg>
